# xmcd
#
# Track frame offsets:
#	150
#	13380
#	33671
#	52718
#	70163
#	89563
#	103126
#	122330
#	143450
#	161863
#	186655
#	203484
#	224471
#	244507
#	258704
#	275799
#	301748
#	318725
#
# Disc length: 4366 seconds
#
# Revision: 1
# Processed by: cddbd v1.5.2PL0 Copyright (c) Steve Scherf et al.
# Submitted via: audiograbber 1.83.01
#
DISCID=0f110c12
DTITLE=Tim Rentler Project - Cheddar of Disaster
DYEAR=2008
DGENRE=Acid Gospel
TTITLE0=Queso de Desastre
TTITLE1=Turtles on Rockets
TTITLE2=Juke Joint
TTITLE3=Drenched
TTITLE4=Wake and Bake
TTITLE5=You got Two Seconds
TTITLE6=Hang Eleven
TTITLE7=Funk in a Dangerous Field
TTITLE8=Last Train Outta the Cuckoo's Nest
TTITLE9=Lost in the Sauce
TTITLE10=Reverse the Heat
TTITLE11=Gear Grease
TTITLE12=Wolf's Nipple Chips
TTITLE13=Underwater Hockey
TTITLE14=The Booty Callers
TTITLE15=Molasses in January
TTITLE16=The Jazz Rain Song
TTITLE17=MiLK
EXTD=
EXTT0=
EXTT1=
EXTT2=
EXTT3=
EXTT4=
EXTT5=
EXTT6=
EXTT7=
EXTT8=
EXTT9=
EXTT10=
EXTT11=
EXTT12=
EXTT13=
EXTT14=
EXTT15=
EXTT16=
EXTT17=
PLAYORDER=
